<svg xmlns="http://www.w3.org/2000/svg" width="1419" height="1791" viewBox="0 0 1419 1791" fill="none"><path d="M615.508 811.138C557.572 999.478 499.971 1185.14 443.804 1371.28C437.111 1393.51 426.021 1393.89 408.717 1388.54C357.282 1372.57 305.656 1357.28 254.508 1340.5C237.443 1334.9 233.905 1340.02 233.666 1356.08C233.045 1399.01 232.519 1399.01 188.78 1399.01C133.904 1399.01 78.9793 1398.43 24.1027 1399.34C6.51158 1399.63 0.966552 1394.51 1.01435 1376.44C1.58798 1164.54 1.63578 952.632 0.966552 740.726C0.91875 721.701 7.89783 718.641 24.6285 718.832C86.6754 719.693 148.77 719.98 210.769 718.689C230.511 718.259 234.336 725.047 234.288 743.116C233.666 919.314 233.905 1095.51 233.905 1271.71C233.905 1282.75 233.905 1293.79 233.905 1304.88C235.387 1305.17 236.869 1305.41 238.351 1305.7C252.07 1261.19 265.837 1216.74 279.508 1172.19C323.391 1029.31 367.512 886.569 410.629 743.45C415.553 727.054 423.297 725.955 436.729 730.114C488.212 746.032 539.886 761.472 591.273 777.629C617.898 785.994 620.527 784.704 620.719 758.221C620.91 732.153 633.928 719.119 659.773 719.119C713.885 719.119 767.996 719.741 822.06 718.785C839.03 718.498 845.627 721.987 845.531 740.774C844.862 952.68 844.91 1164.59 845.483 1376.54C845.531 1394.56 839.986 1399.63 822.347 1399.34C763.503 1398.38 704.563 1398.19 645.719 1399.44C626.072 1399.87 620.145 1394.56 620.241 1374.44C621.005 1196.66 620.766 1018.89 620.527 841.062C620.527 831.98 623.539 822.18 615.46 811.138H615.508Z" fill="#F6B034"></path><path d="M1174.64 581.446C1179.42 572.841 1176.98 563.424 1176.98 554.486C1177.17 379.052 1177.56 203.619 1176.6 28.234C1176.5 5.95829 1182.96 0.0786463 1204.66 0.604468C1263.5 2.03853 1322.4 1.5127 1381.29 0.843477C1396.49 0.65227 1401.89 4.66763 1401.84 20.8725C1401.32 231.201 1401.32 441.577 1401.84 651.906C1401.84 669.067 1396.11 673.178 1379.9 672.939C1320.25 672.126 1260.54 671.935 1200.88 673.034C1182.38 673.369 1176.03 668.541 1176.6 649.325C1177.75 610.94 1176.79 611.322 1140.65 622.651C1091.51 638.043 1041.89 652.049 992.945 668.159C978.366 672.939 973.155 669.64 969.044 655.921C940.985 562.755 912.447 469.733 883.957 376.71C854.654 281.058 825.256 185.407 795.523 88.7034C786.823 97.8336 790.408 107.872 790.408 116.811C790.169 293.822 789.93 470.832 790.647 647.843C790.743 667.489 785.628 673.512 765.551 673.082C704.317 671.791 643.035 672.078 581.753 672.939C564.879 673.178 558.187 669.736 558.282 650.95C558.951 441.386 558.856 231.822 558.378 22.3065C558.378 5.76708 563.11 0.508864 579.841 0.747873C642.7 1.60831 705.56 1.5127 768.42 0.747873C784.338 0.556666 790.791 4.18961 790.647 21.6373C790.265 64.2766 790.934 63.6074 832.474 50.5097C879.368 35.7389 926.835 22.9758 973.729 8.20498C989.456 3.23357 995.335 6.00609 1000.4 22.689C1056.19 206.631 1112.93 390.238 1169.48 573.941C1170.34 576.666 1169.67 580.538 1174.59 581.446H1174.64Z" fill="#F6B034"></path><path d="M233.951 335.736C233.951 440.47 233.568 545.204 234.285 649.89C234.381 667.099 230.413 673.361 211.914 673.026C149.102 671.879 86.2426 671.927 23.4308 673.026C5.07487 673.361 0.963909 667.242 1.01171 649.938C1.53753 441.283 1.53753 232.627 1.01171 23.9718C0.963909 6.9065 4.45345 0.262032 23.1918 0.644447C86.0036 1.79169 148.863 1.69609 211.675 0.644447C229.935 0.357636 234.429 6.52408 234.333 23.924C233.616 127.845 233.998 231.767 233.998 335.688L233.951 335.736Z" fill="#F6B034"></path><path d="M279.504 335.745C279.504 232.589 279.934 129.48 279.122 26.3233C278.978 7.01135 283.854 0.175669 304.218 0.605886C366.217 1.84874 428.264 1.51412 490.311 0.749292C506.133 0.558084 512.539 3.95202 512.491 21.5431C511.917 231.776 511.917 442.009 512.491 652.29C512.491 670.024 505.559 673.036 490.072 672.845C427.26 672.175 364.4 671.841 301.589 672.988C283.089 673.323 279.074 667.108 279.17 649.9C279.887 545.166 279.504 440.432 279.504 335.745Z" fill="#F6B034"></path><path d="M1177.14 1059.81C1177.14 955.119 1177.9 850.433 1176.57 745.747C1176.28 722.85 1183.78 718.213 1204.82 718.691C1263.61 719.982 1322.46 719.599 1381.3 718.834C1396.55 718.643 1401.9 722.85 1401.9 738.768C1401.43 952.108 1401.33 1165.45 1402 1378.79C1402.05 1398 1392.25 1398.96 1378.48 1398.96C1318.87 1398.86 1259.22 1398.34 1199.61 1399.34C1181.59 1399.63 1176.71 1393.85 1176.81 1376.25C1177.57 1270.76 1177.19 1165.3 1177.19 1059.81H1177.14Z" fill="#F6B034"></path><path d="M1123.31 1057.65C1123.31 1163.15 1122.84 1268.65 1123.74 1374.15C1123.89 1393.17 1118.1 1398.34 1099.46 1398C1039.85 1396.95 980.195 1397.14 920.538 1397.91C904.333 1398.1 898.549 1393.7 898.597 1376.68C899.123 1164.11 899.075 951.485 898.597 738.862C898.597 722.944 903.855 718.641 919.152 718.833C980.386 719.55 1041.62 719.741 1102.85 718.737C1120.68 718.45 1123.65 725.525 1123.55 741.061C1123.03 846.559 1123.27 952.058 1123.27 1057.56L1123.31 1057.65Z" fill="#F6B034"></path><path d="M5 1594.52H30.5844V1787.17H5V1594.52Z" fill="black"></path><path d="M78.2066 1728.64C78.8821 1733.82 80.4019 1738.57 82.7662 1742.89C85.1304 1747.2 88.0857 1750.96 91.6321 1754.16C95.1784 1757.35 99.1807 1759.85 103.656 1761.67C108.131 1763.48 112.809 1764.39 117.723 1764.39C128.531 1764.39 137.11 1762.32 143.443 1758.18C149.775 1754.04 154.875 1747.13 158.76 1737.47L182.064 1748.08C176.154 1762.24 167.997 1772.82 157.611 1779.81C147.225 1786.8 133.935 1790.31 117.723 1790.31C108.773 1790.31 100.278 1788.49 92.2569 1784.87C84.2354 1781.24 77.2609 1776.32 71.3503 1770.11C65.4397 1763.89 60.745 1756.61 57.3 1748.24C53.838 1739.86 52.0986 1730.94 52.0986 1721.45C52.0986 1711.95 53.8212 1703.06 57.3 1694.78C60.7619 1686.49 65.4397 1679.24 71.3503 1673.02C77.2609 1666.81 84.2185 1661.89 92.2569 1658.27C100.278 1654.64 108.756 1652.83 117.723 1652.83C126.69 1652.83 135.404 1654.64 143.443 1658.27C151.464 1661.89 158.422 1666.81 164.349 1673.02C170.26 1679.24 174.938 1686.49 178.4 1694.78C181.862 1703.06 183.601 1711.95 183.601 1721.45C183.601 1722.65 183.55 1723.86 183.466 1725.07C183.381 1726.28 183.348 1727.49 183.348 1728.7H78.2235L78.2066 1728.64ZM156.226 1710C155.044 1705.51 153.22 1701.37 150.789 1697.57C148.34 1693.77 145.469 1690.49 142.176 1687.73C138.883 1684.97 135.168 1682.78 131.03 1681.12C126.893 1679.48 122.452 1678.67 117.723 1678.67C112.995 1678.67 108.773 1679.5 104.551 1681.12C100.329 1682.76 96.5801 1684.97 93.287 1687.73C89.994 1690.49 87.1231 1693.77 84.6744 1697.57C82.2258 1701.37 80.5033 1705.51 79.49 1710H156.243H156.226Z" fill="black"></path><path d="M364.196 1652.78C372.133 1652.78 379.597 1654.19 386.622 1657.04C393.63 1659.89 399.659 1663.86 404.725 1668.95C409.792 1674.04 413.76 1680 416.631 1686.82C419.502 1693.64 420.937 1701.02 420.937 1708.97V1787.16H395.606V1717.77C395.606 1711.38 394.542 1705.77 392.431 1700.94C390.321 1696.1 387.568 1692.05 384.19 1688.77C380.813 1685.49 376.963 1682.99 372.656 1681.26C368.35 1679.53 363.993 1678.67 359.602 1678.67C354.367 1678.67 349.605 1679.71 345.299 1681.78C340.992 1683.85 337.193 1686.66 333.9 1690.2C330.607 1693.74 328.073 1698.06 326.3 1703.15C324.527 1708.24 323.632 1713.88 323.632 1720.12V1787.18H298.048V1717.79C298.048 1711.4 297.034 1705.79 295.008 1700.96C292.981 1696.12 290.279 1692.07 286.902 1688.79C283.524 1685.51 279.691 1683 275.368 1681.28C271.062 1679.55 266.637 1678.69 262.061 1678.69C256.994 1678.69 252.266 1679.72 247.875 1681.79C243.484 1683.87 239.685 1686.77 236.476 1690.46C233.268 1694.17 230.768 1698.54 229.012 1703.54C227.239 1708.55 226.344 1714.16 226.344 1720.38V1787.18H200.759V1656.14H226.344V1671.94C228.539 1668.66 231.19 1665.84 234.315 1663.51C237.439 1661.18 240.782 1659.2 244.312 1657.56C247.858 1655.92 251.54 1654.71 255.339 1653.93C259.139 1653.16 262.888 1652.78 266.603 1652.78C272.007 1652.78 277.158 1653.43 282.055 1654.71C286.953 1656 291.512 1657.82 295.734 1660.15C299.956 1662.48 303.756 1665.29 307.133 1668.57C310.511 1671.85 313.466 1675.56 315.999 1679.71C318.363 1675.22 321.319 1671.28 324.865 1667.92C328.411 1664.55 332.329 1661.79 336.652 1659.63C340.959 1657.47 345.434 1655.8 350.078 1654.59C354.722 1653.38 359.4 1652.78 364.145 1652.78H364.196Z" fill="black"></path><path d="M605.348 1652.78C613.285 1652.78 620.749 1654.19 627.774 1657.04C634.782 1659.89 640.811 1663.86 645.877 1668.95C650.944 1674.04 654.912 1680 657.783 1686.82C660.654 1693.64 662.089 1701.02 662.089 1708.97V1787.16H636.758V1717.77C636.758 1711.38 635.694 1705.77 633.583 1700.94C631.472 1696.1 628.72 1692.05 625.342 1688.77C621.965 1685.49 618.114 1682.99 613.808 1681.26C609.502 1679.53 605.145 1678.67 600.754 1678.67C595.519 1678.67 590.757 1679.71 586.451 1681.78C582.144 1683.85 578.345 1686.66 575.052 1690.2C571.758 1693.74 569.225 1698.06 567.452 1703.15C565.679 1708.24 564.784 1713.88 564.784 1720.12V1787.18H539.2V1717.79C539.2 1711.4 538.186 1705.79 536.16 1700.96C534.133 1696.12 531.431 1692.07 528.054 1688.79C524.676 1685.51 520.843 1683 516.52 1681.28C512.213 1679.55 507.789 1678.69 503.212 1678.69C498.146 1678.69 493.418 1679.72 489.027 1681.79C484.636 1683.87 480.837 1686.77 477.628 1690.46C474.419 1694.17 471.92 1698.54 470.164 1703.54C468.391 1708.55 467.496 1714.16 467.496 1720.38V1787.18H441.911V1656.14H467.496V1671.94C469.691 1668.66 472.342 1665.84 475.466 1663.51C478.591 1661.18 481.934 1659.2 485.464 1657.56C489.01 1655.92 492.692 1654.71 496.491 1653.93C500.291 1653.16 504.04 1652.78 507.755 1652.78C513.159 1652.78 518.31 1653.43 523.207 1654.71C528.104 1656 532.664 1657.82 536.886 1660.15C541.108 1662.48 544.907 1665.29 548.285 1668.57C551.662 1671.85 554.618 1675.56 557.151 1679.71C559.515 1675.22 562.47 1671.28 566.017 1667.92C569.563 1664.55 573.481 1661.79 577.804 1659.63C582.11 1657.47 586.586 1655.8 591.23 1654.59C595.874 1653.38 600.551 1652.78 605.297 1652.78H605.348Z" fill="black"></path><path d="M759.108 1652.78C768.058 1652.78 776.535 1654.59 784.574 1658.21C792.595 1661.84 799.553 1666.76 805.48 1672.97C811.391 1679.19 816.069 1686.44 819.548 1694.72C823.01 1703.01 824.732 1711.9 824.732 1721.39C824.732 1730.89 822.993 1739.83 819.548 1748.19C816.086 1756.56 811.391 1763.86 805.48 1770.06C799.57 1776.27 792.595 1781.19 784.574 1784.82C776.552 1788.44 768.058 1790.25 759.108 1790.25C750.157 1790.25 741.882 1788.53 734.283 1785.08C726.684 1781.62 720.013 1776.88 714.272 1770.83V1787.15H688.94V1594.26H714.272V1672.2C720.013 1666.15 726.684 1661.41 734.283 1657.95C741.882 1654.5 750.157 1652.78 759.108 1652.78ZM759.108 1764.38C764.68 1764.38 769.916 1763.26 774.813 1761.01C779.71 1758.77 783.966 1755.71 787.614 1751.83C791.244 1747.94 794.115 1743.4 796.226 1738.22C798.337 1733.05 799.401 1727.44 799.401 1721.39C799.401 1715.35 798.354 1710 796.226 1704.82C794.115 1699.64 791.244 1695.12 787.614 1691.22C783.983 1687.34 779.71 1684.28 774.813 1682.02C769.916 1679.77 764.68 1678.65 759.108 1678.65C753.535 1678.65 748.3 1679.77 743.402 1682.02C738.505 1684.26 734.199 1687.34 730.483 1691.22C726.768 1695.1 723.847 1699.64 721.753 1704.82C719.642 1710 718.578 1715.52 718.578 1721.39C718.578 1727.26 719.625 1733.05 721.753 1738.22C723.864 1743.4 726.768 1747.93 730.483 1751.83C734.199 1755.71 738.505 1758.78 743.402 1761.01C748.3 1763.26 753.535 1764.38 759.108 1764.38Z" fill="black"></path><path d="M911.601 1653.55V1679.71H895.136C891.589 1679.71 888.246 1680.22 885.138 1681.26C882.014 1682.29 879.228 1683.9 876.779 1686.04C874.33 1688.2 872.422 1690.79 871.071 1693.81C869.72 1696.83 869.045 1700.25 869.045 1704.03V1787.15H843.46V1653.55H869.045V1668.83C871.916 1664.17 875.513 1660.46 879.819 1657.7C884.125 1654.93 889.225 1653.55 895.153 1653.55H911.618H911.601Z" fill="black"></path><path d="M1025.84 1655.88H1051.43V1787.16H1025.84V1770.85C1020.27 1776.89 1013.69 1781.64 1006.09 1785.09C998.487 1788.55 990.212 1790.27 981.261 1790.27C972.311 1790.27 963.817 1788.46 955.795 1784.83C947.774 1781.21 940.799 1776.29 934.889 1770.07C928.978 1763.86 924.283 1756.58 920.838 1748.2C917.376 1739.83 915.637 1730.91 915.637 1721.41C915.637 1711.92 917.36 1703.03 920.838 1694.74C924.3 1686.46 928.978 1679.2 934.889 1672.99C940.799 1666.78 947.757 1661.86 955.795 1658.23C963.817 1654.61 972.294 1652.79 981.261 1652.79C990.229 1652.79 998.487 1654.52 1006.09 1657.97C1013.69 1661.42 1020.27 1666.17 1025.84 1672.21V1655.9V1655.88ZM981.261 1764.38C986.834 1764.38 992.069 1763.26 996.967 1761.01C1001.86 1758.77 1006.12 1755.71 1009.77 1751.83C1013.4 1747.94 1016.27 1743.4 1018.38 1738.23C1020.49 1733.05 1021.55 1727.44 1021.55 1721.39C1021.55 1715.35 1020.49 1710 1018.38 1704.82C1016.27 1699.64 1013.4 1695.12 1009.77 1691.22C1006.14 1687.34 1001.86 1684.28 996.967 1682.02C992.069 1679.77 986.834 1678.65 981.261 1678.65C975.689 1678.65 970.487 1679.77 965.691 1682.02C960.878 1684.26 956.606 1687.34 952.891 1691.22C949.175 1695.1 946.254 1699.64 944.16 1704.82C942.049 1710 940.985 1715.53 940.985 1721.39C940.985 1727.26 942.032 1733.05 944.16 1738.23C946.271 1743.4 949.175 1747.93 952.891 1751.83C956.606 1755.71 960.861 1758.78 965.691 1761.01C970.504 1763.26 975.689 1764.38 981.261 1764.38Z" fill="black"></path><path d="M1075.24 1769.56C1075.24 1763.69 1077.01 1758.94 1080.56 1755.31C1084.11 1751.69 1088.58 1749.88 1093.98 1749.88C1099.73 1749.88 1104.29 1751.69 1107.66 1755.31C1111.04 1758.94 1112.81 1763.69 1112.98 1769.56C1112.98 1774.91 1111.24 1779.48 1107.78 1783.28C1104.32 1787.08 1099.71 1788.98 1093.98 1788.98C1088.26 1788.98 1083.89 1787.08 1080.42 1783.28C1076.96 1779.48 1075.24 1774.91 1075.24 1769.56Z" fill="url(#paint0_linear_746_2261)"></path><path d="M1240.4 1594.26H1265.73V1787.16H1240.4V1770.85C1234.66 1776.89 1227.99 1781.64 1220.39 1785.09C1212.79 1788.54 1204.51 1790.27 1195.56 1790.27C1186.61 1790.27 1178.12 1788.46 1170.1 1784.83C1162.08 1781.21 1155.1 1776.29 1149.19 1770.07C1143.28 1763.86 1138.58 1756.57 1135.12 1748.2C1131.66 1739.83 1129.94 1730.91 1129.94 1721.41C1129.94 1711.92 1131.66 1703.03 1135.12 1694.74C1138.58 1686.45 1143.26 1679.2 1149.19 1672.99C1155.1 1666.78 1162.06 1661.86 1170.1 1658.23C1178.12 1654.61 1186.6 1652.79 1195.56 1652.79C1204.53 1652.79 1212.79 1654.52 1220.39 1657.97C1227.99 1661.42 1234.66 1666.17 1240.4 1672.21V1594.26ZM1195.56 1764.38C1201.14 1764.38 1206.4 1763.26 1211.4 1761.01C1216.39 1758.77 1220.69 1755.71 1224.32 1751.83C1227.95 1747.94 1230.82 1743.4 1232.93 1738.22C1235.05 1733.05 1236.11 1727.44 1236.11 1721.39C1236.11 1715.35 1235.05 1710 1232.93 1704.82C1230.82 1699.64 1227.95 1695.12 1224.32 1691.22C1220.69 1687.34 1216.39 1684.28 1211.4 1682.02C1206.42 1679.77 1201.14 1678.65 1195.56 1678.65C1189.99 1678.65 1184.79 1679.77 1179.99 1682.02C1175.18 1684.26 1170.96 1687.34 1167.33 1691.22C1163.7 1695.1 1160.83 1699.64 1158.71 1704.82C1156.6 1710 1155.54 1715.52 1155.54 1721.39C1155.54 1727.26 1156.59 1733.05 1158.71 1738.22C1160.83 1743.4 1163.7 1747.93 1167.33 1751.83C1170.96 1755.71 1175.18 1758.78 1179.99 1761.01C1184.81 1763.26 1189.99 1764.38 1195.56 1764.38Z" fill="url(#paint1_linear_746_2261)"></path><path d="M1313.61 1728.64C1314.28 1733.82 1315.8 1738.57 1318.17 1742.89C1320.53 1747.2 1323.49 1750.96 1327.03 1754.16C1330.58 1757.35 1334.58 1759.85 1339.06 1761.67C1343.53 1763.48 1348.21 1764.39 1353.12 1764.39C1363.93 1764.39 1372.51 1762.32 1378.84 1758.18C1385.17 1754.04 1390.27 1747.13 1394.16 1737.47L1417.46 1748.08C1411.55 1762.24 1403.4 1772.82 1393.01 1779.81C1382.62 1786.8 1369.33 1790.31 1353.12 1790.31C1344.17 1790.31 1335.68 1788.49 1327.66 1784.87C1319.63 1781.24 1312.66 1776.32 1306.75 1770.11C1300.84 1763.89 1296.14 1756.61 1292.7 1748.24C1289.24 1739.86 1287.5 1730.94 1287.5 1721.45C1287.5 1711.95 1289.22 1703.06 1292.7 1694.78C1296.16 1686.49 1300.84 1679.24 1306.75 1673.02C1312.66 1666.81 1319.62 1661.89 1327.66 1658.27C1335.68 1654.64 1344.16 1652.83 1353.12 1652.83C1362.09 1652.83 1370.8 1654.64 1378.84 1658.27C1386.86 1661.89 1393.82 1666.81 1399.75 1673.02C1405.66 1679.24 1410.34 1686.49 1413.8 1694.78C1417.26 1703.06 1419 1711.95 1419 1721.45C1419 1722.65 1418.95 1723.86 1418.87 1725.07C1418.78 1726.28 1418.75 1727.49 1418.75 1728.7H1313.62L1313.61 1728.64ZM1391.63 1710C1390.44 1705.51 1388.62 1701.37 1386.19 1697.57C1383.74 1693.77 1380.87 1690.49 1377.58 1687.73C1374.28 1684.97 1370.57 1682.78 1366.43 1681.12C1362.29 1679.48 1357.85 1678.67 1353.12 1678.67C1348.39 1678.67 1344.17 1679.5 1339.95 1681.12C1335.73 1682.76 1331.98 1684.97 1328.69 1687.73C1325.39 1690.49 1322.52 1693.77 1320.07 1697.57C1317.63 1701.37 1315.9 1705.51 1314.89 1710H1391.64H1391.63Z" fill="url(#paint2_linear_746_2261)"></path><defs><linearGradient id="paint0_linear_746_2261" x1="1134.45" y1="1788.76" x2="1094.9" y2="1749" gradientUnits="userSpaceOnUse"><stop stop-color="#BC4732"></stop><stop offset="1"></stop></linearGradient><linearGradient id="paint1_linear_746_2261" x1="1200.4" y1="1692.99" x2="1292.78" y2="1744.43" gradientUnits="userSpaceOnUse"><stop></stop><stop offset="0.53164" stop-color="#D45038"></stop></linearGradient><linearGradient id="paint2_linear_746_2261" x1="1287.12" y1="1721.31" x2="1391.25" y2="1765.31" gradientUnits="userSpaceOnUse"><stop stop-color="#D45038"></stop><stop offset="0.99164" stop-color="#F6B034"></stop></linearGradient></defs></svg>